#!OML:ASF H:\Male1\Project 1\Capture day 1\Session 1\Male1.ASF
:FULLY-SPECIFIED
:DEGREES
573
root 24.6168 15.1458 3.39243 -10.7025 77.8387 -371.048
lowerback 16.9275 0.154907 5.58356
upperback 9.23294 1.56604 2.13445
thorax 0.459969 1.15798 -1.14927
lowerneck -4.65088 5.53794 14.5235
upperneck 11.2634 8.07337 -14.7324
head 5.3147 3.8402 -6.53979
rclavicle -3.26007e-014 -7.95139e-016
rhumerus -41.1062 0.773716 -71.466
rradius 43.2218
rwrist -20.8452
rhand -21.1605 4.10206
rfingers 7.12502
rthumb 5.21938 -25.8137
lclavicle -3.26007e-014 -7.95139e-016
lhumerus -39.3412 0.599739 84.113
lradius 44.6989
lwrist 3.30638
lhand -19.1431 13.9651
lfingers 7.12502
lthumb 7.16707 43.8238
rfemur -12.4936 4.94259 23.2826
rtibia 36.0248
rfoot -25.683 -21.6993
rtoes -27.161
lfemur -32.0281 2.55986 -15.2947
ltibia 80.0181
lfoot -3.23767 0.417156
ltoes -3.23854
574
root 24.8345 15.1778 3.42501 -10.1393 78.5568 -370.49
lowerback 16.6678 0.278221 5.56991
upperback 9.06592 1.69572 1.94705
thorax 0.429023 1.21749 -1.3567
lowerneck -4.83759 5.4369 14.1606
upperneck 11.3556 7.91973 -14.4542
head 5.32538 3.7573 -6.39526
rclavicle -1.82882e-014 -4.53229e-014
rhumerus -41.0802 0.448889 -71.4218
rradius 44.3348
rwrist -21.608
rhand -21.2065 4.1534
rfingers 7.12502
rthumb 5.17494 -25.7634
lclavicle -1.82882e-014 -4.53229e-014
lhumerus -39.5248 0.5316 84.2934
lradius 42.0483
lwrist 0.486605
lhand -16.4035 13.2931
lfingers 7.12502
lthumb 9.81084 43.0446
rfemur -10.9595 5.41082 23.2614
rtibia 35.19
rfoot -26.7995 -22.6187
rtoes -25.4136
lfemur -33.8985 1.73385 -15.3543
ltibia 78.3774
lfoot -3.8955 1.04298
ltoes -2.80209
575
root 25.0539 15.21 3.45435 -9.60064 79.2753 -369.992
lowerback 16.4111 0.354683 5.43872
upperback 8.91068 1.7488 1.76948
thorax 0.400413 1.23475 -1.47527
lowerneck -5.00563 5.41095 13.8864
upperneck 11.3482 7.87548 -14.3375
head 5.32992 3.72433 -6.30969
rclavicle 3.18055e-014 1.59028e-014
rhumerus -41.0791 0.405534 -71.5696
rradius 45.3776
rwrist -22.274
rhand -21.0128 4.09891
rfingers 7.12502
rthumb 5.36197 -25.8133
lclavicle 3.18055e-014 1.59028e-014
lhumerus -39.8583 0.730747 84.2898
lradius 39.8334
lwrist -1.89484
lhand -13.8421 12.4937
lfingers 7.12502
lthumb 12.2814 42.113
rfemur -9.42256 5.85388 23.282
rtibia 34.2907
rfoot -27.9027 -23.4486
rtoes -23.476
lfemur -35.5096 0.864419 -15.338
ltibia 76.0471
lfoot -4.63402 1.87754
ltoes -2.14572
576
root 25.2758 15.2418 3.48066 -9.74345 79.9408 -370.207
lowerback 16.1508 0.389784 5.32262
upperback 8.78211 1.75209 1.62467
thorax 0.399189 1.22892 -1.55915
lowerneck -5.19815 5.4582 13.7233
upperneck 11.2807 7.93033 -14.3565
head 5.3454 3.73641 -6.27835
rclavicle 1.63003e-014 8.74653e-015
rhumerus -41.067 0.603889 -71.8946
rradius 46.3491
rwrist -22.9043
rhand -20.6676 3.94693
rfingers 7.12502
rthumb 5.6953 -25.9565
lclavicle 1.63003e-014 8.74653e-015
lhumerus -40.3198 1.16131 84.1214
lradius 38.0719
lwrist -3.76022
lhand -11.6624 11.7927
lfingers 7.12502
lthumb 14.3823 41.2745
rfemur -7.83875 6.27449 23.4633
rtibia 33.257
rfoot -28.8684 -24.2032
rtoes -21.5813
lfemur -36.8398 0.0183142 -15.106
ltibia 73.1073
lfoot -5.4042 2.89263
ltoes -1.52777
577
root 25.5011 15.2714 3.5039 -11.0478 80.5467 -371.599
lowerback 15.8858 0.401388 5.33142
upperback 8.67574 1.74389 1.51999
thorax 0.427562 1.2227 -1.66824
lowerneck -5.44242 5.53187 13.6263
upperneck 11.2213 8.01512 -14.4163
head 5.38121 3.7614 -6.26796
rclavicle -1.07344e-014 3.02153e-014
rhumerus -41.0738 0.937593 -72.3432
rradius 47.2507
rwrist -23.5418
rhand -20.2646 3.7116
rfingers 7.12502
rthumb 6.08439 -26.181
lclavicle -1.07344e-014 3.02153e-014
lhumerus -40.8937 1.6954 83.8404
lradius 36.7208
lwrist -5.08
lhand -10.0028 11.2755
lfingers 7.12502
lthumb 15.981 40.6362
rfemur -6.15855 6.67672 23.8562
rtibia 32.0429
rfoot -29.6309 -24.9228
rtoes -19.9414
lfemur -37.8769 -0.792157 -14.6075
ltibia 69.6458
lfoot -6.09941 4.0594
ltoes -1.23305
578
root 25.7321 15.298 3.52366 -13.4411 81.0949 -374.072
lowerback 15.6047 0.39612 5.41797
upperback 8.58577 1.72429 1.45268
thorax 0.483376 1.21408 -1.7791
lowerneck -5.70409 5.62087 13.6198
upperneck 11.1892 8.12395 -14.5526
head 5.43893 3.79712 -6.29598
rclavicle -5.56597e-015 0
rhumerus -41.1111 1.38554 -72.8731
rradius 48.0864
rwrist -24.1894
rhand -19.8667 3.40696
rfingers 7.12502
rthumb 6.4685 -26.4743
lclavicle -5.56597e-015 0
lhumerus -41.5799 2.31559 83.4719
lradius 35.7097
lwrist -5.8521
lhand -8.92994 10.8973
lfingers 7.12502
lthumb 17.0139 40.1722
rfemur -4.34501 7.06259 24.3994
rtibia 30.6352
rfoot -30.1465 -25.6211
rtoes -18.7486
lfemur -38.5983 -1.5969 -13.9114
ltibia 65.7605
lfoot -6.66808 5.37024
ltoes -1.13604
579
root 25.9692 15.3195 3.54039 -16.7129 81.613 -377.399
lowerback 15.2905 0.414585 5.57361
upperback 8.49535 1.74268 1.41841
thorax 0.560807 1.2266 -1.89844
lowerneck -5.92709 5.65893 13.5812
upperneck 11.1839 8.16674 -14.6336
head 5.48454 3.80372 -6.30731
rclavicle -4.17448e-015 7.15625e-015
rhumerus -41.2765 1.76589 -73.3745
rradius 48.8932
rwrist -24.8018
rhand -19.5069 3.05535
rfingers 7.12502
rthumb 6.81588 -26.8149
lclavicle -4.17448e-015 7.15625e-015
lhumerus -42.3551 2.8705 83.0991
lradius 34.9579
lwrist -6.10318
lhand -8.39349 10.6197
lfingers 7.12502
lthumb 17.5302 39.8493
rfemur -2.40125 7.43132 25.0254
rtibia 29.0692
rfoot -30.447 -26.3302
rtoes -18.0573
lfemur -39.0141 -2.45537 -13.0969
ltibia 61.5862
lfoot -7.06896 6.83072
ltoes -0.992941
580
root 26.2126 15.3324 3.55432 -20.5717 82.1019 -381.27
lowerback 14.943 0.45924 5.71535
upperback 8.40768 1.79059 1.4051
thorax 0.660415 1.25352 -1.99077
lowerneck -6.12732 5.6503 13.482
upperneck 11.2267 8.14464 -14.6038
head 5.5239 3.7826 -6.27843
rclavicle -1.43125e-014 -7.95139e-016
rhumerus -41.5361 2.04487 -73.8293
rradius 49.6459
rwrist -25.3169
rhand -19.1932 2.70129
rfingers 7.12502
rthumb 7.11864 -27.159
lclavicle -1.43125e-014 -7.95139e-016
lhumerus -43.1953 3.38941 82.7091
lradius 34.4168
lwrist -5.91479
lhand -8.29601 10.4032
lfingers 7.12502
lthumb 17.624 39.6244
rfemur -0.348378 7.7973 25.6724
rtibia 27.4186
rfoot -30.7071 -26.9653
rtoes -17.479
lfemur -39.1289 -3.41236 -12.2381
ltibia 57.2961
lfoot -7.42458 8.53526
ltoes -0.662041
581
root 26.4616 15.3337 3.56374 -24.8861 82.5662 -385.535
lowerback 14.5709 0.502013 5.80267
upperback 8.33219 1.82665 1.39011
thorax 0.783637 1.27379 -2.05138
lowerneck -6.33318 5.63446 13.3807
upperneck 11.3379 8.10611 -14.4799
head 5.57873 3.75748 -6.22001
rclavicle 2.22639e-014 -1.43125e-014
rhumerus -41.8481 2.24866 -74.2765
rradius 50.3375
rwrist -25.6839
rhand -18.9343 2.38797
rfingers 7.12502
rthumb 7.36855 -27.4637
lclavicle 2.22639e-014 -1.43125e-014
lhumerus -44.0796 3.96082 82.2376
lradius 34.0502
lwrist -5.42031
lhand -8.53657 10.179
lfingers 7.12502
lthumb 17.3925 39.4208
rfemur 1.77416 8.10399 26.2968
rtibia 25.7777
rfoot -30.8421 -27.5979
rtoes -17.4139
lfemur -38.9631 -4.52638 -11.3791
ltibia 53.0926
lfoot -7.84631 10.5623
ltoes -0.265187
582
root 26.7154 15.3209 3.56795 -29.375 83.0014 -389.898
lowerback 14.1892 0.541688 5.79355
upperback 8.27347 1.84566 1.35662
thorax 0.925733 1.28369 -2.0742
lowerneck -6.54725 5.62052 13.2678
upperneck 11.4964 8.05834 -14.2418
head 5.64317 3.73261 -6.12276
rclavicle -5.96354e-015 1.19271e-015
rhumerus -42.1852 2.3789 -74.7269
rradius 50.955
rwrist -25.89
rhand -18.7476 2.10493
rfingers 7.12502
rthumb 7.54875 -27.7404
lclavicle -5.96354e-015 1.19271e-015
lhumerus -44.9929 4.6037 81.6613
lradius 33.8293
lwrist -4.76665
lhand -8.99151 9.94392
lfingers 7.12502
lthumb 16.9546 39.2239
rfemur 3.93741 8.33245 26.8565
rtibia 24.2507
rfoot -30.9497 -28.1386
rtoes -17.6126
lfemur -38.5381 -5.81231 -10.5741
ltibia 49.1778
lfoot -8.45553 12.8932
ltoes 0.527064
583
root 26.9734 15.2945 3.56683 -33.9002 83.3813 -394.186
lowerback 13.8296 0.587817 5.68817
upperback 8.24194 1.86437 1.3028
thorax 1.0821 1.29204 -2.06413
lowerneck -6.76583 5.60668 13.1464
upperneck 11.6806 8.00042 -13.9183
head 5.71129 3.70691 -5.99691
rclavicle 1.49089e-014 5.88403e-014
rhumerus -42.5169 2.42265 -75.1719
rradius 51.4641
rwrist -25.9436
rhand -18.6324 1.83945
rfingers 7.12502
rthumb 7.65999 -28.0018
lclavicle 1.49089e-014 5.88403e-014
lhumerus -45.9077 5.29073 80.9928
lradius 33.7244
lwrist -4.07221
lhand -9.55225 9.77629
lfingers 7.12502
lthumb 16.4148 39.1018
rfemur 6.125 8.47299 27.3512
rtibia 22.9244
rfoot -31.0823 -28.5285
rtoes -17.8833
lfemur -37.861 -7.21577 -9.85558
ltibia 45.73
lfoot -9.47298 15.4317
ltoes 1.31029
584
root 27.2353 15.257 3.55907 -37.9093 83.7315 -397.855
lowerback 13.4844 0.643916 5.44296
upperback 8.23954 1.88287 1.2182
thorax 1.25729 1.29736 -2.0075
lowerneck -6.96422 5.60121 13.0531
upperneck 11.8611 7.95217 -13.5963
head 5.77774 3.68844 -5.87595
rclavicle -2.23633e-014 1.39149e-015
rhumerus -42.8172 2.40299 -75.6068
rradius 51.8381
rwrist -25.885
rhand -18.5903 1.62285
rfingers 7.12502
rthumb 7.70056 -28.2169
lclavicle -2.23633e-014 1.39149e-015
lhumerus -46.7905 6.0146 80.2591
lradius 33.6772
lwrist -3.43819
lhand -10.1587 9.75307
lfingers 7.12502
lthumb 15.8308 39.1258
rfemur 8.27438 8.44103 27.6829
rtibia 21.8739
rfoot -31.1721 -28.7026
rtoes -18.2197
lfemur -36.9498 -8.6013 -9.36761
ltibia 42.866
lfoot -10.9429 17.8934
ltoes 2.57024
585
root 27.5016 15.2118 3.54353 -41.5162 84.0255 -401.049
lowerback 13.1404 0.715762 5.14559
upperback 8.24738 1.91855 1.10606
thorax 1.44315 1.31007 -1.9518
lowerneck -7.11494 5.59614 13.016
upperneck 12.0215 7.909 -13.3287
head 5.83523 3.67448 -5.78311
rclavicle 7.65321e-015 1.19271e-015
rhumerus -43.1099 2.29141 -76.0315
rradius 52.0716
rwrist -25.7538
rhand -18.6258 1.46489
rfingers 7.12502
rthumb 7.66632 -28.3762
lclavicle 7.65321e-015 1.19271e-015
lhumerus -47.6133 6.72418 79.481
lradius 33.612
lwrist -2.9604
lhand -10.923 9.81944
lfingers 7.12502
lthumb 15.0946 39.2491
rfemur 10.3047 8.16021 27.8448
rtibia 21.1579
rfoot -31.0724 -28.6491
rtoes -18.7498
lfemur -35.8266 -9.76086 -9.15996
ltibia 40.6312
lfoot -12.7306 19.9563
ltoes 3.91906
586
root 27.7732 15.1639 3.51876 -44.3987 84.2832 -403.508
lowerback 12.7585 0.807884 4.80112
upperback 8.23581 1.97476 0.966113
thorax 1.62951 1.32999 -1.89976
lowerneck -7.18341 5.58976 13.0356
upperneck 12.1357 7.87582 -13.1515
head 5.87154 3.66667 -5.73024
rclavicle 7.60351e-015 -4.37326e-015
rhumerus -43.4144 2.08604 -76.4299
rradius 52.1674
rwrist -25.5713
rhand -18.7136 1.36226
rfingers 7.12502
rthumb 7.58162 -28.4819
lclavicle 7.60351e-015 -4.37326e-015
lhumerus -48.3626 7.42786 78.6699
lradius 33.459
lwrist -2.71931
lhand -11.8223 9.91727
lfingers 7.12502
lthumb 14.2283 39.4099
rfemur 12.0943 7.57525 27.744
rtibia 20.8464
rfoot -30.6324 -28.3631
rtoes -19.6205
lfemur -34.5441 -10.5564 -9.30676
ltibia 38.9947
lfoot -14.5845 21.3788
ltoes 5.20368
